<svg width="54" height="49" viewBox="0 0 54 49" fill="none" xmlns="http://www.w3.org/2000/svg">
<path d="M0.499912 36.507C0.499912 39.5506 3.23782 42.4696 8.05074 44.6566C12.8185 46.823 19.4401 48.176 26.781 48.176C34.1218 48.176 40.7435 46.823 45.5112 44.6566C50.3241 42.4696 53.062 39.5506 53.062 36.507C53.062 33.4633 50.3241 30.5443 45.5112 28.3574C40.7435 26.191 34.1218 24.838 26.781 24.838C19.4401 24.838 12.8185 26.191 8.05074 28.3574C3.23782 30.5443 0.499912 33.4633 0.499912 36.507Z" stroke="#F1F4F9"/>
<path d="M0.499912 24.338C0.499912 27.3817 3.23782 30.3006 8.05074 32.4876C12.8185 34.654 19.4401 36.007 26.781 36.007C34.1218 36.007 40.7435 34.654 45.5112 32.4876C50.3241 30.3006 53.062 27.3817 53.062 24.338C53.062 21.2944 50.3241 18.3754 45.5112 16.1884C40.7435 14.022 34.1218 12.669 26.781 12.669C19.4401 12.669 12.8185 14.022 8.05074 16.1884C3.23782 18.3754 0.499912 21.2944 0.499912 24.338Z" stroke="#F1F4F9"/>
<path d="M0.499912 12.169C0.499912 15.2126 3.23782 18.1316 8.05074 20.3186C12.8185 22.485 19.4401 23.838 26.781 23.838C34.1218 23.838 40.7435 22.485 45.5112 20.3186C50.3241 18.1316 53.062 15.2126 53.062 12.169C53.062 9.12535 50.3241 6.20635 45.5112 4.01942C40.7435 1.85302 34.1218 0.499985 26.781 0.499985C19.4401 0.499985 12.8185 1.85302 8.05074 4.01942C3.23782 6.20635 0.499912 9.12535 0.499912 12.169Z" stroke="#F1F4F9"/>
</svg>
